<?xml version="1.0" ?><svg enable-background="new 0 0 52 52" id="Layer_1" version="1.1" viewBox="0 0 52 52" xml:space="preserve" xmlns="http://www.w3.org/2000/svg" xmlns:xlink="http://www.w3.org/1999/xlink"><g><g><g><path d="M49,38H3c-0.3125,0-0.6064453-0.1459961-0.7958984-0.394043     c-0.1884766-0.2485352-0.2509766-0.5708008-0.1679688-0.8720703l8-29C10.1552734,7.300293,10.5498047,7,11,7h19.2441406v2     H11.7617188L4.3134766,36h43.3730469l-3.6503906-13.2338867l1.9277344-0.5322266l4,14.5     c0.0830078,0.3012695,0.0205078,0.6235352-0.1679688,0.8720703C49.6064453,37.8540039,49.3125,38,49,38z"/></g></g><g><g><path d="M49,50H3c-0.5527344,0-1-0.4477539-1-1V37c0-0.5522461,0.4472656-1,1-1h46c0.5527344,0,1,0.4477539,1,1v12     C50,49.5522461,49.5527344,50,49,50z M4,48h44V38H4V48z"/></g></g><g><g><rect height="2" width="4" x="8" y="42"/></g></g><g><g><path d="M50,23.7822266H30V2h20V23.7822266z M32,21.7822266h16V4H32V21.7822266z"/></g></g><g><g><path d="M45,9H35V2h10V9z M37,7h6V4h-6V7z"/></g></g><g><g><rect height="2" width="10" x="35" y="18"/></g></g><g><g><rect height="2" width="10" x="35" y="13.1186523"/></g></g></g></svg>